HIERARCHY
ROOT Hips
{
	OFFSET 0.000000 0.000000 0.000000
	CHANNELS 6 Xposition Yposition Zposition Xrotation Yrotation Zrotation
	JOINT Chest
	{
		OFFSET 0.000000 0.009282 11.569106
		CHANNELS 3 Xrotation Yrotation Zrotation
		JOINT Chest2
		{
			OFFSET 0.000000 -0.016863 9.269641
			CHANNELS 3 Xrotation Yrotation Zrotation
			JOINT Chest3
			{
				OFFSET 0.000000 0.000000 8.374491
				CHANNELS 3 Xrotation Yrotation Zrotation
				JOINT Chest4
				{
					OFFSET 0.000000 0.000000 8.374493
					CHANNELS 3 Xrotation Yrotation Zrotation
					JOINT Neck
					{
						OFFSET 0.000000 -0.000001 12.152554
						CHANNELS 3 Xrotation Yrotation Zrotation
						JOINT Head
						{
							OFFSET 0.000000 -0.040100 7.802319
							CHANNELS 3 Xrotation Yrotation Zrotation
							End Site
							{
								OFFSET 0.000000 -0.020946 14.853096
							}
						}
					}
					JOINT RightCollar
					{
						OFFSET -2.894404 0.000000 6.791374
						CHANNELS 3 Xrotation Yrotation Zrotation
						JOINT RightShoulder
						{
							OFFSET -13.574684 0.000000 0.000000
							CHANNELS 3 Xrotation Yrotation Zrotation
							JOINT RightElbow
							{
								OFFSET -23.923903 0.000000 0.000000
								CHANNELS 3 Xrotation Yrotation Zrotation
								JOINT RightWrist
								{
									OFFSET -19.846718 -0.012765 0.000000
									CHANNELS 3 Xrotation Yrotation Zrotation
									End Site
									{
										OFFSET -14.973145 0.000000 0.000000
									}
								}
							}
						}
					}
					JOINT LeftCollar
					{
						OFFSET 2.894404 0.000000 6.791374
						CHANNELS 3 Xrotation Yrotation Zrotation
						JOINT LeftShoulder
						{
							OFFSET 13.574684 0.000000 0.000000
							CHANNELS 3 Xrotation Yrotation Zrotation
							JOINT LeftElbow
							{
								OFFSET 23.923903 0.000000 0.000000
								CHANNELS 3 Xrotation Yrotation Zrotation
								JOINT LeftWrist
								{
									OFFSET 19.846718 -0.012765 0.000000
									CHANNELS 3 Xrotation Yrotation Zrotation
									End Site
									{
										OFFSET 14.973145 0.000000 0.000000
									}
								}
							}
						}
					}
				}
			}
		}
	}
	JOINT RightHip
	{
		OFFSET -9.469263 -0.004642 0.045487
		CHANNELS 3 Xrotation Yrotation Zrotation
		JOINT RightKnee
		{
			OFFSET 0.000000 -0.002666 -40.478676
			CHANNELS 3 Xrotation Yrotation Zrotation
			JOINT RightAnkle
			{
				OFFSET 0.000000 -0.049110 -35.224068
				CHANNELS 3 Xrotation Yrotation Zrotation
				JOINT RightToe
				{
					OFFSET 0.000000 -12.539530 -6.151390
					CHANNELS 3 Xrotation Yrotation Zrotation
					End Site
					{
						OFFSET 0.000000 -5.044995 -1.291870
					}
				}
			}
		}
	}
	JOINT LeftHip
	{
		OFFSET 9.469263 -0.004642 0.045487
		CHANNELS 3 Xrotation Yrotation Zrotation
		JOINT LeftKnee
		{
			OFFSET 0.000000 -0.002666 -40.478676
			CHANNELS 3 Xrotation Yrotation Zrotation
			JOINT LeftAnkle
			{
				OFFSET 0.000000 -0.049110 -35.224068
				CHANNELS 3 Xrotation Yrotation Zrotation
				JOINT LeftToe
				{
					OFFSET 0.000000 -12.539530 -6.151390
					CHANNELS 3 Xrotation Yrotation Zrotation
					End Site
					{
						OFFSET 0.000000 -5.044995 -1.291870
					}
				}
			}
		}
	}
}
MOTION
Frames: 7
Frame Time: 0.016667
0.708967 -11.340584 83.144760 -0.386183 2.250143 -113.968885 5.104494 2.126416 1.231357 2.452213 0.903041 0.337159 2.452211 0.903040 0.337160 1.839619 0.675940 0.256496 14.775157 -1.127978 -0.855347 -8.760067 -1.726726 -1.982149 -8.255966 -9.929235 -0.445483 20.191631 -40.846369 -3.466823 70.810204 18.059213 66.933969 -60.028682 45.273158 85.586894 -4.910254 8.306751 -4.790672 18.949223 38.268638 8.663336 63.244355 -8.618322 -63.691569 -33.109147 -32.654147 -87.396205 3.467697 -3.913611 -12.629053 0.437055 -3.003553 -3.297422 -4.263834 2.433081 1.998580 -0.269204 -0.303926 0.248239 2.340666 1.471438 10.550615 3.877997 1.972926 8.886491 -2.525056 -1.608111 7.315471 0.178499 0.131459 0.013650 
0.708967 -11.340584 83.144760 -0.386183 2.250143 -113.968885 5.104494 2.126416 1.231357 2.452213 0.903041 0.337159 2.452211 0.903040 0.337160 1.839619 0.675940 0.256496 14.775157 -1.127978 -0.855347 -8.760067 -1.726726 -1.982149 -8.255966 -9.929235 -0.445483 20.191631 -40.846369 -3.466823 70.810204 18.059213 66.933969 -60.028682 45.273158 85.586894 -4.910254 8.306751 -4.790672 18.949223 38.268638 8.663336 63.244355 -8.618322 -63.691569 -33.109147 -32.654147 -87.396205 3.467697 -3.913611 -12.629053 0.437055 -3.003553 -3.297422 -4.263834 2.433081 1.998580 -0.269204 -0.303926 0.248239 2.340666 1.471438 10.550615 3.877997 1.972926 8.886491 -2.525056 -1.608111 7.315471 0.178499 0.131459 0.013650 
0.874973 -11.223379 83.169884 -0.528190 2.343976 -113.675849 5.148419 2.256183 1.196214 2.465619 0.916682 0.340489 2.465621 0.916682 0.340495 1.849688 0.686150 0.259071 14.705927 -1.167840 -0.924042 -8.889736 -1.772101 -2.123088 -8.263176 -9.944052 -0.460593 20.282190 -40.868010 -3.382804 70.792438 18.051690 66.900398 -60.083330 45.276825 85.651351 -4.909336 8.304363 -4.772905 18.893391 38.217436 8.676682 63.251643 -8.656651 -63.746313 -33.088172 -32.649568 -87.428143 3.303402 -3.791631 -12.603094 0.728881 -3.164329 -3.377395 -4.374449 2.721980 1.831217 -0.262306 -0.307234 0.210526 1.938025 1.366859 10.212084 4.598944 2.001357 9.043596 -2.456215 -1.342760 6.922436 -0.006969 0.072135 0.012496 
1.031626 -11.135310 83.201080 -0.623445 2.482760 -113.326574 5.256000 2.361033 1.125742 2.487627 0.927195 0.343069 2.487629 0.927195 0.343065 1.866199 0.694013 0.261074 14.627659 -1.205468 -0.998339 -9.036119 -1.810985 -2.273546 -8.245571 -9.941472 -0.467440 20.347521 -40.919605 -3.317139 70.742906 18.057767 66.871595 -60.105473 45.291452 85.690495 -4.884328 8.288391 -4.775553 18.832906 38.176229 8.691465 63.230708 -8.716235 -63.817271 -33.052761 -32.666934 -87.447691 3.227478 -3.681625 -12.702531 0.968992 -3.329551 -3.401610 -4.455358 3.005720 1.668861 -0.255326 -0.316379 0.178439 1.488005 1.215770 9.883523 5.545471 2.021189 9.176266 -2.502420 -0.946445 6.355172 -0.148623 -0.061406 0.009452 
1.185757 -11.058712 83.227455 -0.621011 2.627621 -112.950668 5.400355 2.389223 1.046972 2.520938 0.932176 0.347522 2.520935 0.932176 0.347521 1.891194 0.697713 0.264483 14.546920 -1.242579 -1.078188 -9.187142 -1.846585 -2.433952 -8.241702 -9.945924 -0.480103 20.405038 -40.965197 -3.279561 70.665984 18.069523 66.865530 -60.078399 45.311519 85.692168 -4.849471 8.255925 -4.784553 18.779766 38.141873 8.690837 63.181640 -8.794225 -63.897676 -32.997337 -32.701289 -87.449432 3.199000 -3.655698 -12.827210 1.202485 -3.480452 -3.437628 -4.509623 3.275310 1.525209 -0.269356 -0.325581 0.142794 0.979715 0.983122 9.616306 6.709231 1.986825 9.270073 -2.668366 -0.543457 5.642151 -0.256322 -0.142353 0.007603 
1.339950 -11.010779 83.198074 -0.601698 2.838224 -112.547741 5.599956 2.435567 0.933578 2.565181 0.930146 0.355775 2.565183 0.930146 0.355783 1.924388 0.696131 0.270747 14.469095 -1.274810 -1.159316 -9.332571 -1.872688 -2.594816 -8.249582 -9.959247 -0.489707 20.448377 -40.981005 -3.259429 70.579350 18.088323 66.897530 -60.046918 45.336180 85.692749 -4.851152 8.232366 -4.784847 18.764440 38.109908 8.677998 63.115476 -8.886401 -63.961361 -32.945342 -32.745853 -87.445901 3.202309 -3.619412 -12.899376 1.471863 -3.600602 -3.581071 -4.514231 3.529830 1.380728 -0.339334 -0.342573 0.119880 0.491490 0.840382 9.421923 8.060450 1.874504 9.216201 -2.931597 -0.977290 5.417344 -0.330849 0.474657 -0.012217 
1.506389 -10.967758 83.157715 -0.472392 3.029785 -112.211750 5.797693 2.385348 0.870733 2.619259 0.919732 0.372413 2.619259 0.919732 0.372408 1.964963 0.688219 0.283255 14.402839 -1.303084 -1.239952 -9.456406 -1.891851 -2.753149 -8.237837 -9.966762 -0.498895 20.448249 -40.964872 -3.233641 70.507216 18.113269 66.957772 -60.063078 45.360301 85.727938 -4.825078 8.212176 -4.798964 18.703795 38.105427 8.666820 63.029095 -8.973981 -63.995205 -32.890595 -32.800665 -87.447581 3.191702 -3.692610 -12.870913 1.797660 -3.705768 -3.800734 -4.580568 3.792109 1.282543 -0.366675 -0.369919 0.104834 0.005408 0.633117 9.305479 9.678653 1.756359 9.224640 -3.440485 -2.197132 6.078688 -0.339643 1.623374 -0.054363 
